<?xml version="1.0" encoding="UTF-8" standalone="no"?><!DOCTYPE svg PUBLIC "-//W3C//DTD SVG 1.1//EN" "http://www.w3.org/Graphics/SVG/1.1/DTD/svg11.dtd"><svg xmlns="http://www.w3.org/2000/svg" xmlns:xlink="http://www.w3.org/1999/xlink" xml:space="preserve" width="692" height="284" fill="none" fill-rule="evenodd" stroke-linecap="square" stroke-miterlimit="3" color-interpolation-filters="sRGB" font-size="12" overflow="visible" viewBox="0 0 207.4 85"><style>.st1,.st2{fill:#fff;stroke:#bfbfbf;stroke-width:.25}.st2{fill:#f2f2f2}.st3{fill:#1e4e79;font-family:Cascadia Code;font-size:.499992em;font-weight:700}.st6{fill:#fbe5d5;stroke:#c7c8c8;stroke-width:.25}.st7{fill:#1e4e79;font-family:Cascadia Code;font-size:.833336em}.st8{marker-end:url(#mrkr1-43);stroke-linecap:round;stroke-linejoin:round;stroke-width:.5}.st10,.st8,.st9{stroke:#1e4e79}.st9{fill:#1e4e79;fill-opacity:1;stroke-opacity:1;stroke-width:.16556291390728}.st10{marker-end:url(#mrkr1-43);marker-start:url(#mrkr1-60);stroke-linecap:round;stroke-linejoin:round;stroke-width:.5}.st11{fill:none;stroke:none;stroke-width:.25}</style><defs id="Markers"><marker id="mrkr1-43" class="st9" markerUnits="strokeWidth" orient="auto" overflow="visible"><use xlink:href="#lend1" transform="scale(-6.04)"/></marker><marker id="mrkr1-60" class="st9" markerUnits="strokeWidth" orient="auto" overflow="visible"><use xlink:href="#lend1" transform="scale(6.04)"/></marker><path id="lend1" stroke-linecap="round" stroke-linejoin="round" d="M1-1 0 0l1 1"/></defs><g id="group25-1" transform="translate(142 -.3)"><g id="shape26-2"><path d="M0 15h65.2v70H0z" class="st1"/></g><g id="shape27-4" transform="translate(0 -58.4)"><path d="M0 73.4h65.2v11.7H0z" class="st2"/><text x="2.7" y="81" class="st3">Linked to <tspan font-size="1em" font-style="italic">$group1</tspan></text></g></g><g id="group22-8" transform="translate(71.1 -.3)"><g id="shape23-9"><path d="M0 15h65.2v70H0z" class="st1"/></g><g id="shape24-11" transform="translate(0 -58.4)"><path d="M0 73.4h65.2v11.7H0z" class="st2"/><text x="20.3" y="81" fill="#1e4e79" font-family="Cascadia Code" font-size=".5em" font-style="italic" font-weight="700">$group1</text></g></g><g id="shape13-14" transform="translate(96.6 -36.3)"><path d="M0 70.9h14.2v14.2H0z" class="st6"/><text x="4.2" y="81" class="st7">E</text></g><g id="shape14-17" transform="translate(96.6 -8)"><path d="M0 70.9h14.2v14.2H0z" class="st6"/><text x="4.2" y="81" class="st7">F</text></g><g id="group19-20" transform="translate(.3 -.3)"><g id="shape20-21"><path d="M0 15h65.2v70H0z" class="st1"/></g><g id="shape21-23" transform="translate(0 -58.4)"><path d="M0 73.4h65.2v11.7H0z" class="st2"/><text x="30.8" y="81" class="st3">A</text></g></g><g id="shape1-26" transform="translate(5.6 -21.8)"><path d="M0 70.9h14.2v14.2H0z" class="st6"/><text x="4.2" y="81" class="st7">A</text></g><g id="shape3-29" transform="translate(46.7 -40.2)"><path d="M0 70.9h14.2v14.2H0z" class="st6"/><text x="4.2" y="81" class="st7">B</text></g><g id="shape4-32" transform="translate(46.7 -21.8)"><path d="M0 70.9h14.2v14.2H0z" class="st6"/><text x="4.2" y="81" class="st7">C</text></g><g id="shape5-35" transform="translate(46.7 -3.4)"><path d="M0 70.9h14.2v14.2H0z" class="st6"/><text x="4.2" y="81" class="st7">D</text></g><g id="shape10-38" transform="rotate(34.4 56.6 102.6)"><path d="M0 85h32.6" class="st8"/></g><g id="shape11-44" transform="translate(19.8 -28.9)"><path d="M0 85h27" class="st8"/></g><g id="shape12-49" transform="rotate(-34.4 -36.8 38.6)"><path d="M0 85h32.6" class="st8"/></g><g id="shape28-54" transform="rotate(90 70 118.8)"><path d="M0 85h14.2" class="st10"/></g><g id="shape29-62" transform="translate(169 -36.3)"><path d="M0 70.9h14.2v14.2H0z" class="st6"/><text x="4.2" y="81" class="st7">G</text></g><g id="shape30-65" transform="translate(169 -8)"><path d="M0 70.9h14.2v14.2H0z" class="st6"/><text x="4.2" y="81" class="st7">H</text></g><g id="shape31-68" transform="rotate(90 106.1 154.9)"><path d="M0 85h14.2" class="st10"/></g><g id="shape32-75" transform="rotate(180 84.5 63.4)"><path d="M0 85h58.1" class="st8"/></g><g id="shape33-80" transform="rotate(159.7 88.3 78.5)"><path d="M0 85h62" class="st8"/></g><g id="shape34-85" transform="rotate(-159.9 83.1 62.6)"><path d="M0 85h61.9" class="st8"/></g><g id="shape35-90" transform="rotate(180 84.5 77.5)"><path d="M0 85h58.1" class="st8"/></g><g id="shape36-95" transform="translate(.3 -73.1)"><path d="M0 73.4h65.2v11.7H0z" class="st11"/><text x="11.5" y="81" class="st3">Direct group</text></g><g id="shape37-98" transform="translate(71.1 -73.1)"><path d="M0 73.4h65.2v11.7H0z" class="st11"/><text x="8" y="81" class="st3">Indirect group</text></g><g id="shape38-101" transform="translate(142 -73.1)"><path d="M0 73.4h65.2v11.7H0z" class="st11"/><text x="8" y="81" class="st3">Indirect group</text></g></svg>