<svg xmlns="http://www.w3.org/2000/svg" xmlns:xlink="http://www.w3.org/1999/xlink" width="692" height="284" fill="none" fill-rule="evenodd" stroke-linecap="square" stroke-miterlimit="3" color-interpolation-filters="sRGB" font-size="12" overflow="visible" viewBox="0 0 207.4 85" xmlns:v="https://vecta.io/nano"><style><![CDATA[.J{fill:#1e4e79}.K{font-family:Cascadia Code}.L{stroke-width:.25}.M{marker-end:url(#A)}.N{fill:#fbe5d5}.O{stroke:#c7c8c8}.P{font-size:.833336em}.Q{font-weight:700}.R{font-size:.499992em}.S{stroke:#1e4e79}.T{overflow:visible}.U{stroke-linecap:round}.V{stroke-linejoin:round}.W{stroke:#bfbfbf}.X{fill:#f2f2f2}.Y{stroke-width:.166}.Z{font-style:italic}.a{marker-start:url(#B)}]]></style><defs><marker id="A" markerUnits="strokeWidth" orient="auto" fill-opacity="1" class="J S T"><use xlink:href="#C" transform="scale(-6.04)" stroke-opacity="1" class="Y"/></marker><marker id="B" markerUnits="strokeWidth" orient="auto" fill-opacity="1" class="J S T"><use xlink:href="#C" transform="scale(6.04)" stroke-opacity="1" class="Y"/></marker><path id="C" d="M1-1 0 0l1 1" class="U V"/></defs><g class="L W"><path d="M142 14.7h65.2v70H142z" fill="#fff"/><path d="M142 14.7h65.2v11.7H142z" class="X"/></g><text x="2.7" y="81" transform="translate(142 -58.7)" class="J K Q R">Linked to <tspan class="Z">$group1</tspan></text><g class="L W"><path d="M71.1 14.7h65.2v70H71.1z" fill="#fff"/><path d="M71.1 14.7h65.2v11.7H71.1z" class="X"/></g><text x="91.4" y="22.3" font-size=".5em" class="J K Q Z">$group1</text><path d="M96.6 34.6h14.2v14.2H96.6z" class="L N O"/><text x="100.8" y="44.7" class="J K P">E</text><path d="M96.6 62.9h14.2v14.2H96.6z" class="L N O"/><text x="100.8" y="73" class="J K P">F</text><g class="L W"><path d="M.3 14.7h65.2v70H.3z" fill="#fff"/><path d="M.3 14.7h65.2v11.7H.3z" class="X"/></g><text x="31.1" y="22.3" class="J K Q R">A</text><path d="M5.6 49.1h14.2v14.2H5.6z" class="L N O"/><text x="9.8" y="59.2" class="J K P">A</text><path d="M46.7 30.7h14.2v14.2H46.7z" class="L N O"/><text x="50.9" y="40.8" class="J K P">B</text><path d="M46.7 49.1h14.2v14.2H46.7z" class="L N O"/><text x="50.9" y="59.2" class="J K P">C</text><path d="M46.7 67.5h14.2v14.2H46.7z" class="L N O"/><text x="50.9" y="77.6" class="J K P">D</text><g stroke-width=".5" class="S U V M"><path d="M0 85h32.6" transform="rotate(34.4 56.6 102.6)"/><path d="M19.8 56.1h27"/><path d="M0 85h32.6" transform="rotate(325.6 -36.8 38.6)"/><path d="M0 85h14.2" transform="rotate(90 70 118.8)" class="a"/></g><path d="M169 34.6h14.2v14.2H169z" class="L N O"/><text x="173.2" y="44.7" class="J K P">G</text><path d="M169 62.9h14.2v14.2H169z" class="L N O"/><text x="173.2" y="73" class="J K P">H</text><g stroke-width=".5" class="S U V M"><path d="M0 85h14.2" transform="rotate(90 106.1 154.9)" class="a"/><path d="M169 41.8h-58.1"/><path d="M0 85h62" transform="rotate(159.7 88.3 78.5)"/><path d="M0 85h61.9" transform="rotate(200.1 83.1 62.6)"/><path d="M169 70h-58.1"/></g><text x="11.8" y="7.9" class="J K Q R">Direct group</text><text x="79.1" y="7.9" class="J K Q R">Indirect group</text><text x="150" y="7.9" class="J K Q R">Indirect group</text></svg>