<?xml version="1.0" encoding="UTF-8" standalone="no"?><!DOCTYPE svg PUBLIC "-//W3C//DTD SVG 1.1//EN" "http://www.w3.org/Graphics/SVG/1.1/DTD/svg11.dtd"><svg xmlns="http://www.w3.org/2000/svg" xmlns:xlink="http://www.w3.org/1999/xlink" xml:space="preserve" width="898" height="1375" fill="none" fill-rule="evenodd" stroke-linecap="square" stroke-miterlimit="3" color-interpolation-filters="sRGB" font-size="12" overflow="visible" viewBox="0 0 336.7 515.8"><style>.st1{fill:url(#grad0-4);stroke:#d06d29;stroke-width:.75}.st2{fill:#fff;stroke:#bfbfbf;stroke-width:.25}.st3{fill:#203864;font-family:Roboto;font-size:.499992em}.st4{font-size:1em}.st5{fill:#f2f2f2;stroke:#bfbfbf;stroke-width:.25}.st6{fill:#538135;font-family:Roboto;font-size:.499992em;font-weight:700}.st7{fill:#203864;font-family:Cascadia Code;font-size:1em;font-style:italic;font-weight:400}.st8{marker-end:url(#mrkr1-100);stroke:#4672c4;stroke-linecap:round;stroke-linejoin:round;stroke-width:1}.st10{fill:#fff;stroke:none;stroke-linecap:butt;stroke-width:7.2}.st11{fill:#c55a11;font-family:Roboto;font-size:.499992em;font-style:italic}.st12{marker-end:url(#mrkr1-100);stroke:#4672c4;stroke-dasharray:1,2;stroke-linecap:round;stroke-linejoin:round;stroke-width:1}.st13{fill:#1e4e79;font-family:Roboto;font-size:.499992em;font-style:italic}.st14{fill:#fff;stroke:none;stroke-linecap:butt}.st17{fill:#fff;stroke:#fbece7;stroke-width:.75}.st20{font-size:.75em;font-weight:400}.st21{marker-end:url(#mrkr1-260);stroke:#7f7f7f;stroke-dasharray:.75,1.5;stroke-linecap:round;stroke-linejoin:round;stroke-width:.75}.st23{fill:#3f3f3f;font-family:Roboto;font-size:.499992em;font-style:italic}</style><defs id="Patterns_And_Gradients"><linearGradient id="grad0-4" x1="0" x2="1" y1="0" y2="0" gradientTransform="rotate(60 .5 .5)"><stop offset="0" stop-color="#fbece7"/><stop offset=".2" stop-color="#fdf5f3"/><stop offset=".5" stop-color="#feffff"/></linearGradient></defs><defs id="Markers"><marker id="mrkr1-100" fill="#4672c4" fill-opacity="1" stroke="#4672c4" stroke-opacity="1" stroke-width=".3" markerUnits="strokeWidth" orient="auto" overflow="visible"><use xlink:href="#lend1" transform="scale(-3.52)"/></marker><marker id="mrkr1-260" fill="#7f7f7f" fill-opacity="1" stroke="#7f7f7f" stroke-opacity="1" stroke-width=".2" markerUnits="strokeWidth" orient="auto" overflow="visible"><use xlink:href="#lend1" transform="scale(-4.36)"/></marker><path id="lend1" stroke-linecap="round" stroke-linejoin="round" d="M1-1 0 0l1 1"/></defs><g id="shape137-1" transform="translate(24.6 -5)"><path d="M5.9 515.8h47a5.9 5.9-180 0 0 6-5.9v-73.3a5.9 5.9-180 0 0-6-5.9H6a5.9 5.9-180 0 0-5.9 6v73.2a5.9 5.9-180 0 0 5.9 5.9Z" class="st1"/></g><g id="shape134-5" transform="translate(22.7 -6.7)"><path d="M5.9 515.8h47a5.9 5.9-180 0 0 6-5.9v-73.3a5.9 5.9-180 0 0-6-5.9H6a5.9 5.9-180 0 0-5.9 6v73.2a5.9 5.9-180 0 0 5.9 5.9Z" class="st1"/></g><g id="group2-8" transform="translate(.3 -382.4)"><g id="shape3-9"><path d="M0 426h99.2v89.8H0z" class="st2"/><text x="4" y="453.4" class="st3">Required by all plug-ins.<tspan x="4" class="st4" dy="2.4em">Describes the plug</tspan>-in’s catalog <tspan x="4" class="st4" dy="1.2em">listing.</tspan><tspan x="4" class="st4" dy="2.4em">Names which script file contains </tspan><tspan x="4" class="st4" dy="1.2em">the plug</tspan>-in code.</text></g><g id="shape4-16" transform="translate(0 -74.9)"><path d="M0 500.8h99.2v15H0z" class="st5"/><text x="38.3" y="506.6" class="st6">Root file<tspan x="30.3" class="st7" dy="1.2em">eons</tspan><tspan class="st7">-</tspan><tspan class="st7">plugin</tspan></text></g></g><g id="group6-22" transform="translate(.3 -257.2)"><g id="shape7-23"><path d="M0 426h99.2v89.8H0z" class="st2"/><text x="4" y="453.4" class="st3">Runs when the plug-in is loaded.<tspan x="4" class="st4" dy="2.4em">Registers new games, </tspan><tspan x="4" class="st4" dy="1.2em">expansions, and card designs </tspan><tspan x="4" class="st4" dy="1.2em">(game components).</tspan><tspan x="4" class="st4" dy="2.4em">Pre</tspan>-loads certain resources, such <tspan x="4" class="st4" dy="1.2em">as custom fonts, translated card </tspan><tspan x="4" class="st4" dy="1.2em">text, and settings.</tspan></text></g><g id="shape8-32" transform="translate(0 -74.9)"><path d="M0 500.8h99.2v15H0z" class="st5"/><text x="31.4" y="506.6" class="st6">Plug-in script<tspan x="28.5" class="st7" dy="1.2em">my</tspan><tspan class="st7">-</tspan><tspan class="st7">plugin.js</tspan></text></g></g><g id="group10-38" transform="translate(.3 -134.4)"><g id="shape11-39"><path d="M0 426h99.2v89.8H0z" class="st2"/><text x="4" y="453.4" class="st3">Names all of the types of card <tspan x="4" class="st4" dy="1.2em">designs (game components) you </tspan><tspan x="4" class="st4" dy="1.2em">want to add.</tspan><tspan x="4" class="st4" dy="2.4em">For each one, names the DIY </tspan><tspan x="4" class="st4" dy="1.2em">script (or class) that will control </tspan><tspan x="4" class="st4" dy="1.2em">the game component.</tspan></text></g><g id="shape12-47" transform="translate(0 -74.9)"><path d="M0 500.8h99.2v15H0z" class="st5"/><text x="30.5" y="506.6" class="st6">Class map file<tspan x="21.5" class="st7" dy="1.2em">my</tspan><tspan class="st7">-</tspan><tspan class="st7">game.classmap</tspan></text></g></g><g id="group76-53" transform="translate(191.6 -.3)"><g id="group64-54" transform="translate(17)"><g id="shape65-55"><path d="M0 426h99.2v89.8H0z" class="st2"/></g><g id="shape66-57" transform="translate(0 -74.9)"><path d="M0 500.8h99.2v15H0z" class="st5"/></g></g><g id="group67-59" transform="translate(11.3 -5.2)"><g id="shape68-60"><path d="M0 426h99.2v89.8H0z" class="st2"/></g><g id="shape69-62" transform="translate(0 -74.9)"><path d="M0 500.8h99.2v15H0z" class="st5"/></g></g><g id="group70-64" transform="translate(5.7 -10.9)"><g id="shape71-65"><path d="M0 426h99.2v89.8H0z" class="st2"/></g><g id="shape72-67" transform="translate(0 -74.9)"><path d="M0 500.8h99.2v15H0z" class="st5"/></g></g><g id="group73-69" transform="translate(0 -16.6)"><g id="shape74-70"><path d="M0 426h99.2v89.8H0z" class="st2"/><text x="4" y="453.4" class="st3">A script that controls a single <tspan x="4" class="st4" dy="1.2em">instance of a game component.</tspan><tspan x="4" class="st4" dy="2.4em">It declares the properties that </tspan><tspan x="4" class="st4" dy="1.2em">users can edit, creates the user </tspan><tspan x="4" class="st4" dy="1.2em">interface, draws the card faces, </tspan><tspan x="4" class="st4" dy="1.2em">and customizes loading and </tspan><tspan x="4" class="st4" dy="1.2em">saving.</tspan></text></g><g id="shape75-79" transform="translate(0 -74.9)"><path d="M0 500.8h99.2v15H0z" class="st5"/><text x="34.9" y="506.6" class="st6">DIY scripts<tspan x="18" class="st7" dy="1.2em">card</tspan><tspan class="st7">-</tspan><tspan class="st7">type</tspan><tspan class="st7">-</tspan><tspan class="st7">1</tspan><tspan class="st7">-</tspan><tspan class="st7">diy.js</tspan></text></g></g></g><g id="shape78-89" transform="translate(.3 -500.6)"><path d="M0 500.8h99.2v15H0z" class="st5"/><text x="31.7" y="506.6" class="st6">Strange Eons<tspan x="25" class="st7" dy="1.2em">Plug</tspan><tspan class="st7">-</tspan><tspan class="st7">in loader</tspan></text></g><g id="shape79-95" transform="rotate(90 275.2 290.4)"><path d="M0 515.8h28.4" class="st8"/><path d="M-522.9 10.6h14.2v7.2h-14.2z" class="st10" transform="rotate(-90)"/><text x="-522.9" y="16" class="st11" transform="rotate(-90)">loads</text></g><g id="shape80-103" transform="rotate(90 216.1 349.5)"><path d="M0 515.8h35.3" class="st8"/><path d="M-528.4 10.5h25.3v14.4h-25.3z" class="st10" transform="rotate(-90)"/><text x="-528.5" y="15.9" class="st11" transform="rotate(-90)">loads and <tspan x="-521.5" class="st4" dy="1.2em">runs</tspan></text></g><g id="shape81-111" transform="rotate(90 153.5 412.1)"><path d="M0 515.8h33" class="st8"/><path d="M-527.1 5.7h22.7v21.6h-22.7z" class="st10" transform="rotate(-90)"/><text x="-527.1" y="11.1" class="st11" transform="rotate(-90)">registers <tspan x="-521.5" class="st4" dy="1.2em">card </tspan><tspan x="-522.8" class="st4" dy="1.2em">types</tspan></text></g><g id="group101-120" transform="translate(188.8 -389.2)"><g id="shape98-121" transform="translate(2.8)"><path d="M0 500.8h99.2v15H0z" class="st5"/></g><g id="shape99-123" transform="translate(1.4 -2)"><path d="M0 500.8h99.2v15H0z" class="st5"/></g><g id="shape100-125" transform="translate(0 -4.3)"><path d="M0 500.8h99.2v15H0z" class="st5"/><text x="32" y="506.5" class="st6">Font families<tspan x="10.9" class="st7" dy="1.2em">elf</tspan><tspan class="st7">-</tspan><tspan class="st7">script</tspan><tspan class="st7">-</tspan><tspan class="st7">regular.ttf</tspan></text></g></g><g id="shape102-133" transform="rotate(-34.5 -497 185.9)"><path d="M0 515.8h108.4" class="st8"/><path d="M29.4 508.6h49.5V523H29.4z" class="st10"/><text x="35.4" y="514" class="st11">registers fonts<tspan x="29.4" class="st4" dy="1.2em">used to draw cards</tspan></text></g><g id="shape103-141" transform="translate(99.5 -273.4)"><path d="M0 515.8h92.1" class="st8"/><path d="M26.7 512.2h38.8v7.2H26.7z" class="st10"/><text x="26.7" y="517.6" class="st11">registers game</text></g><g id="shape104-148" transform="translate(191.6 -266)"><path d="M0 500.8h99.2v15H0z" class="st5"/><text x="5.3" y="510.2" class="st6">Game that plug-in adds cards for</text></g><g id="shape105-151" transform="rotate(-25.3 -640.4 139.2)"><path d="M0 515.8h98.7" class="st8"/><path d="M14.2 508.6h70.3V523H14.2z" class="st10"/><text x="26.2" y="514" class="st11">loads translations<tspan x="14.2" class="st4" dy="1.2em">of stock text used on cards</tspan></text></g><g id="group106-159" transform="translate(188.8 -339.6)"><g id="shape107-160" transform="translate(2.8)"><path d="M0 500.8h99.2v15H0z" class="st5"/></g><g id="shape108-162" transform="translate(1.4 -2)"><path d="M0 500.8h99.2v15H0z" class="st5"/></g><g id="shape109-164" transform="translate(0 -4.3)"><path d="M0 500.8h99.2v15H0z" class="st5"/><text x="32.5" y="506.5" class="st6">String tables<tspan x="18" class="st7" dy="1.2em">my</tspan><tspan class="st7">-</tspan><tspan class="st7">game.properties</tspan></text></g></g><g id="shape110-170" transform="rotate(90 290.4 466.6)"><path d="M0 515.8h58.7" class="st12"/><path d="M9 512.2h40.8v7.2H9z" class="st10"/><text x="9" y="517.6" class="st13">associated with</text></g><g id="shape111-177" transform="rotate(31.4 518.9 561.3)"><path d="M0 515.8h107.9" class="st8"/><path d="M14.1 508.6h79.6V523H14.1z" class="st10"/><text x="31" y="514" class="st11">loads design data<tspan x="14.1" class="st4" dy="1.2em">that helps layout card graphics</tspan></text></g><g id="group112-185" transform="translate(191.6 -191)"><g id="shape113-186" transform="translate(2.8)"><path d="M0 500.8h99.2v15H0z" class="st5"/></g><g id="shape114-188" transform="translate(1.4 -2)"><path d="M0 500.8h99.2v15H0z" class="st5"/></g><g id="shape115-190" transform="translate(0 -4.3)"><path d="M0 500.8h99.2v15H0z" class="st5"/><text x="24" y="506.5" class="st6">Layout information<tspan x="14.4" class="st7" dy="1.2em">card</tspan><tspan class="st7">-</tspan><tspan class="st7">type</tspan><tspan class="st7">-</tspan><tspan class="st7">1.settings</tspan></text></g></g><g id="shape116-198" transform="rotate(-90 15.5 290)"><path d="M0 515.8h55.6" class="st12"/><path d="M7.4 512.2h40.8v7.2H7.4z" class="st14"/><text x="7.4" y="517.6" class="st13">associated with</text></g><g id="shape117-205" transform="rotate(51.9 233.9 528.3)"><path d="M0 515.8h149.3" class="st8"/><path d="M45.9 512.2h57.6v7.2H45.9z" class="st14"/><text x="45.9" y="517.6" class="st11">links to DIY script files</text></g><g id="shape118-212" transform="translate(307.8 -45.2)"><path d="M0 515.8h11.3V287.6H-17" class="st12"/><path d="M-413.5 7.7h40.8v7.2h-40.8z" class="st14" transform="rotate(-90)"/><text x="-413.6" y="13.1" class="st13" transform="rotate(-90)">associated with</text></g><g id="shape126-219" transform="translate(.3 -97.6)"><path stroke-width=".3" d="M0 500.8h99.2v15H0z"/><text x="41.7" y="506.6" class="st6">Cards<tspan x="26.8" class="st7" dy="1.2em">user</tspan><tspan class="st7">-</tspan><tspan class="st7">card.eon</tspan></text></g><g id="group132-225" transform="translate(20.7 -8.8)"><g id="group123-226"><g id="shape120-227"><path d="M5.9 515.8h47a5.9 5.9-180 0 0 6-5.9v-73.3a5.9 5.9-180 0 0-6-5.9H6a5.9 5.9-180 0 0-5.9 6v73.2a5.9 5.9-180 0 0 5.9 5.9Z" class="st1"/></g><g id="shape121-230" transform="translate(14.8 -34)"><path fill="url(#grad0-4)" stroke="#fbe5d5" stroke-width="2.3" d="M0 493a14.7 22.8 0 0 1 29.3 0A14.7 22.8 0 1 1 0 493Z"/></g><g id="shape122-233" transform="translate(3.5 -5.6)"><path d="M0 493h52.3v22.8H0z" class="st17"/><text x="11.4" y="498.4" fill="#f7cbac" font-family="Roboto" font-size=".3em" font-style="italic" font-weight="700">Hey, look at that!<tspan x="21.8" dy="2.5em" font-size=".8em">Effect:</tspan><tspan x="13.3" class="st20" dy="1.2em">Take one extra card</tspan><tspan x="13.5" class="st20" dy="1.2em">from any opponent.</tspan></text></g></g><g id="group131-239" transform="translate(21.1 -47.5)"><g id="shape127-240" transform="translate(0 -6.4)"><path d="M0 513.7a2.1 2.1 0 1 1 4.3 0 2.1 2.1 0 1 1-4.3 0Z" class="st17"/></g><g id="shape128-242" transform="translate(4.3 -14.2)"><path d="M0 513.7a2.1 2.1 0 1 1 4.3 0 2.1 2.1 0 1 1-4.3 0Z" class="st17"/></g><g id="shape129-244" transform="translate(9.4 -2.2)"><path d="M0 512.1a3.7 3.7 0 1 1 7.3 0 3.7 3.7 0 1 1-7.3 0Z" class="st17"/></g><g id="shape130-246" transform="translate(3.5)"><path d="M0 514.3a1.4 1.4 0 0 1 2.9 0 1.4 1.4 0 1 1-2.9 0Z" class="st17"/></g></g></g><g id="shape124-248" transform="rotate(180 95.8 497.2)"><path d="M0 515.8h115" class="st8"/><path d="M-84.1-519.4H-31v7.2h-53.1z" class="st10" transform="rotate(180)"/><text x="-84" y="-514" class="st11" transform="rotate(180)">creates and controls</text></g><g id="shape138-255" transform="translate(307.8 -35.5)"><path d="M0 515.8h21.2V200h-41" class="st21"/><path d="M-394.2 17.7h12.3v7.2h-12.3z" class="st14" transform="rotate(-90)"/><text x="-394.1" y="23.1" class="st23" transform="rotate(-90)">uses</text></g><g id="shape139-263" transform="translate(329 -351.3)"><path d="M0 515.8v-49.6h-41.1" class="st21"/></g><g id="shape140-268" transform="translate(184.5 -99.2)"><path d="M7 515.8h-9.8v-99H7" class="st21"/><path d="M-472.5-6.4h12.3V.8h-12.3z" class="st14" transform="rotate(-90)"/><text x="-472.5" y="-1" class="st23" transform="rotate(-90)">uses</text></g><g id="group141-275" transform="translate(191.6 -142.6)"><g id="shape142-276" transform="translate(2.8)"><path d="M0 500.8h99.2v15H0z" class="st5"/></g><g id="shape143-278" transform="translate(1.4 -2)"><path d="M0 500.8h99.2v15H0z" class="st5"/></g><g id="shape144-280" transform="translate(0 -4.3)"><path d="M0 500.8h99.2v15H0z" class="st5"/><text x="31" y="506.5" class="st6">Graphics files<tspan x="5.7" class="st7" dy="1.2em">card</tspan><tspan class="st7">-</tspan><tspan class="st7">1</tspan><tspan class="st7">-</tspan><tspan class="st7">front</tspan><tspan class="st7">-</tspan><tspan class="st7">template.png</tspan></text></g></g><g id="shape145-290" transform="translate(234.1 -106.6)"><path d="M7 515.8v-40.2" class="st21"/><path d="M-501.8 3.5h12.3v7.2h-12.3z" class="st14" transform="rotate(-90)"/><text x="-501.8" y="8.9" class="st23" transform="rotate(-90)">uses</text></g><g id="shape146-297" transform="rotate(90 216.1 540.9)"><path d="M0 515.8h29.2" class="st8"/><path d="M5.3 512.2H24v7.2H5.3z" class="st14"/><text x="5.3" y="517.6" class="st11">links to</text></g></svg>